<mxfile host="app.diagrams.net" modified="2025-09-30T11:09:40.700640" agent="Python" version="24.7.10">
  <diagram id="diag1" name="Technology — Scaled, Observability &amp; Resilience">
    <mxGraphModel>
      <root>
        <mxCell id="0"/>
        <mxCell id="1" parent="0"/>
      <mxCell id="fd2" value="Front Door Premium
(WAF + Rules)" style="rounded=1;whiteSpace=wrap;html=1;fillColor=#FCA5A5;strokeColor=#1C1C1E;fontSize=12;" parent="1" vertex="1">
        <mxGeometry x="20" y="20" width="180" height="60" as="geometry"/>
      </mxCell>
      <mxCell id="apim2" value="API Management
(Perf/Scale)" style="rounded=1;whiteSpace=wrap;html=1;fillColor=#FCA5A5;strokeColor=#1C1C1E;fontSize=12;" parent="1" vertex="1">
        <mxGeometry x="220" y="20" width="170" height="60" as="geometry"/>
      </mxCell>
      <mxCell id="afw" value="Azure Firewall
(+ NSG/UDR)" style="rounded=1;whiteSpace=wrap;html=1;fillColor=#FCA5A5;strokeColor=#1C1C1E;fontSize=12;" parent="1" vertex="1">
        <mxGeometry x="410" y="20" width="160" height="60" as="geometry"/>
      </mxCell>
      <mxCell id="api2" value="App Service (Scale-out)
API Lançamentos" style="rounded=1;whiteSpace=wrap;html=1;fillColor=#93C5FD;strokeColor=#1C1C1E;fontSize=12;" parent="1" vertex="1">
        <mxGeometry x="600" y="20" width="200" height="70" as="geometry"/>
      </mxCell>
      <mxCell id="func2" value="Azure Functions (Premium)
Consolidador + Replayers" style="rounded=1;whiteSpace=wrap;html=1;fillColor=#93C5FD;strokeColor=#1C1C1E;fontSize=12;" parent="1" vertex="1">
        <mxGeometry x="600" y="110" width="200" height="70" as="geometry"/>
      </mxCell>
      <mxCell id="aks" value="AKS (opcional)
Novos microserviços/relatórios" style="rounded=1;whiteSpace=wrap;html=1;fillColor=#93C5FD;strokeColor=#1C1C1E;fontSize=12;" parent="1" vertex="1">
        <mxGeometry x="820" y="20" width="220" height="70" as="geometry"/>
      </mxCell>
      <mxCell id="sb2" value="Service Bus (Standard/Premium)
Topics + Subscriptions + DLQ" style="rounded=1;whiteSpace=wrap;html=1;fillColor=#A7F3D0;strokeColor=#1C1C1E;fontSize=12;" parent="1" vertex="1">
        <mxGeometry x="410" y="110" width="180" height="70" as="geometry"/>
      </mxCell>
      <mxCell id="eh" value="Event Hubs (telemetria/analytics)" style="rounded=1;whiteSpace=wrap;html=1;fillColor=#A7F3D0;strokeColor=#1C1C1E;fontSize=12;" parent="1" vertex="1">
        <mxGeometry x="410" y="190" width="180" height="60" as="geometry"/>
      </mxCell>
      <mxCell id="cos2" value="Cosmos DB (Autoscale/Geo)
Containers shard por tenant" style="rounded=1;whiteSpace=wrap;html=1;fillColor=#A7F3D0;strokeColor=#1C1C1E;fontSize=12;" parent="1" vertex="1">
        <mxGeometry x="1060" y="20" width="240" height="80" as="geometry"/>
      </mxCell>
      <mxCell id="redis2" value="Redis (Std/Premium)
Cluster/Geo-Rep" style="rounded=1;whiteSpace=wrap;html=1;fillColor=#A7F3D0;strokeColor=#1C1C1E;fontSize=12;" parent="1" vertex="1">
        <mxGeometry x="1060" y="110" width="240" height="70" as="geometry"/>
      </mxCell>
      <mxCell id="adx" value="Azure Data Explorer
(consultas analíticas)" style="rounded=1;whiteSpace=wrap;html=1;fillColor=#A7F3D0;strokeColor=#1C1C1E;fontSize=12;" parent="1" vertex="1">
        <mxGeometry x="1060" y="190" width="240" height="70" as="geometry"/>
      </mxCell>
      <mxCell id="blob2" value="Blob (Hot/Cool)
Export + Data Lake" style="rounded=1;whiteSpace=wrap;html=1;fillColor=#A7F3D0;strokeColor=#1C1C1E;fontSize=12;" parent="1" vertex="1">
        <mxGeometry x="1060" y="270" width="240" height="70" as="geometry"/>
      </mxCell>
      <mxCell id="am" value="Azure Monitor + App Insights
Workbooks + Alerts + SLOs" style="rounded=1;whiteSpace=wrap;html=1;fillColor=#C7D2FE;strokeColor=#1C1C1E;fontSize=12;" parent="1" vertex="1">
        <mxGeometry x="20" y="260" width="320" height="80" as="geometry"/>
      </mxCell>
      <mxCell id="graf" value="Managed Grafana
(visualização opcional)" style="rounded=1;whiteSpace=wrap;html=1;fillColor=#C7D2FE;strokeColor=#1C1C1E;fontSize=12;" parent="1" vertex="1">
        <mxGeometry x="360" y="260" width="200" height="60" as="geometry"/>
      </mxCell>
      <mxCell id="chaos" value="Azure Chaos Studio
(Experimentos)" style="rounded=1;whiteSpace=wrap;html=1;fillColor=#C7D2FE;strokeColor=#1C1C1E;fontSize=12;" parent="1" vertex="1">
        <mxGeometry x="580" y="260" width="200" height="60" as="geometry"/>
      </mxCell>
      <mxCell id="alt" value="Azure Load Testing
(k6 pipelines)" style="rounded=1;whiteSpace=wrap;html=1;fillColor=#C7D2FE;strokeColor=#1C1C1E;fontSize=12;" parent="1" vertex="1">
        <mxGeometry x="800" y="260" width="200" height="60" as="geometry"/>
      </mxCell>
      <mxCell id="kv2" value="Key Vault + Managed Identity
(Zero secret)" style="rounded=1;whiteSpace=wrap;html=1;fillColor=#FCA5A5;strokeColor=#1C1C1E;fontSize=12;" parent="1" vertex="1">
        <mxGeometry x="1020" y="260" width="240" height="60" as="geometry"/>
      </mxCell>
      <mxCell id="peds" value="Private Endpoints + DNS Privado
(App/Func→Cosmos/SB/Redis/Blob)" style="rounded=1;whiteSpace=wrap;html=1;fillColor=#FCA5A5;strokeColor=#1C1C1E;fontSize=12;" parent="1" vertex="1">
        <mxGeometry x="20" y="350" width="420" height="70" as="geometry"/>
      </mxCell>
      <mxCell id="x1" style="edgeStyle=orthogonalEdgeStyle;rounded=0;orthogonalLoop=1;jettySize=auto;html=1;" parent="1" edge="1" source="fd2" target="apim2">
        <mxGeometry relative="1" as="geometry"/>
      </mxCell>
      <mxCell id="x2" style="edgeStyle=orthogonalEdgeStyle;rounded=0;orthogonalLoop=1;jettySize=auto;html=1;" parent="1" edge="1" source="apim2" target="afw">
        <mxGeometry relative="1" as="geometry"/>
      </mxCell>
      <mxCell id="x3" style="edgeStyle=orthogonalEdgeStyle;rounded=0;orthogonalLoop=1;jettySize=auto;html=1;" parent="1" edge="1" source="afw" target="api2">
        <mxGeometry relative="1" as="geometry"/>
      </mxCell>
      <mxCell id="x4" style="edgeStyle=orthogonalEdgeStyle;rounded=0;orthogonalLoop=1;jettySize=auto;html=1;" parent="1" edge="1" source="api2" target="sb2">
        <mxGeometry relative="1" as="geometry"/>
      </mxCell>
      <mxCell id="x5" style="edgeStyle=orthogonalEdgeStyle;rounded=0;orthogonalLoop=1;jettySize=auto;html=1;" parent="1" edge="1" source="sb2" target="func2">
        <mxGeometry relative="1" as="geometry"/>
      </mxCell>
      <mxCell id="x6" style="edgeStyle=orthogonalEdgeStyle;rounded=0;orthogonalLoop=1;jettySize=auto;html=1;" parent="1" edge="1" source="func2" target="cos2">
        <mxGeometry relative="1" as="geometry"/>
      </mxCell>
      <mxCell id="x7" style="edgeStyle=orthogonalEdgeStyle;rounded=0;orthogonalLoop=1;jettySize=auto;html=1;" parent="1" edge="1" source="func2" target="redis2">
        <mxGeometry relative="1" as="geometry"/>
      </mxCell>
      <mxCell id="x8" style="edgeStyle=orthogonalEdgeStyle;rounded=0;orthogonalLoop=1;jettySize=auto;html=1;" parent="1" edge="1" source="api2" target="kv2">
        <mxGeometry relative="1" as="geometry"/>
      </mxCell>
      <mxCell id="x9" style="edgeStyle=orthogonalEdgeStyle;rounded=0;orthogonalLoop=1;jettySize=auto;html=1;" parent="1" edge="1" source="func2" target="kv2">
        <mxGeometry relative="1" as="geometry"/>
      </mxCell>
      <mxCell id="x10" style="edgeStyle=orthogonalEdgeStyle;rounded=0;orthogonalLoop=1;jettySize=auto;html=1;" parent="1" edge="1" source="api2" target="am">
        <mxGeometry relative="1" as="geometry"/>
      </mxCell>
      <mxCell id="x11" style="edgeStyle=orthogonalEdgeStyle;rounded=0;orthogonalLoop=1;jettySize=auto;html=1;" parent="1" edge="1" source="func2" target="am">
        <mxGeometry relative="1" as="geometry"/>
      </mxCell>
      <mxCell id="x12" style="edgeStyle=orthogonalEdgeStyle;rounded=0;orthogonalLoop=1;jettySize=auto;html=1;" parent="1" edge="1" source="cos2" target="am">
        <mxGeometry relative="1" as="geometry"/>
      </mxCell>
      <mxCell id="x13" style="edgeStyle=orthogonalEdgeStyle;rounded=0;orthogonalLoop=1;jettySize=auto;html=1;" parent="1" edge="1" source="redis2" target="am">
        <mxGeometry relative="1" as="geometry"/>
      </mxCell>
      <mxCell id="x14" style="edgeStyle=orthogonalEdgeStyle;rounded=0;orthogonalLoop=1;jettySize=auto;html=1;" parent="1" edge="1" source="am" target="graf">
        <mxGeometry relative="1" as="geometry"/>
      </mxCell>
      <mxCell id="x15" style="edgeStyle=orthogonalEdgeStyle;rounded=0;orthogonalLoop=1;jettySize=auto;html=1;" parent="1" edge="1" source="alt" target="am">
        <mxGeometry relative="1" as="geometry"/>
      </mxCell>
      <mxCell id="x16" style="edgeStyle=orthogonalEdgeStyle;rounded=0;orthogonalLoop=1;jettySize=auto;html=1;" parent="1" edge="1" source="eh" target="adx">
        <mxGeometry relative="1" as="geometry"/>
      </mxCell>
      <mxCell id="x17" style="edgeStyle=orthogonalEdgeStyle;rounded=0;orthogonalLoop=1;jettySize=auto;html=1;" parent="1" edge="1" source="api2" target="eh">
        <mxGeometry relative="1" as="geometry"/>
      </mxCell>
      <mxCell id="x18" style="edgeStyle=orthogonalEdgeStyle;rounded=0;orthogonalLoop=1;jettySize=auto;html=1;" parent="1" edge="1" source="func2" target="eh">
        <mxGeometry relative="1" as="geometry"/>
      </mxCell>
      <mxCell id="x19" style="edgeStyle=orthogonalEdgeStyle;rounded=0;orthogonalLoop=1;jettySize=auto;html=1;" parent="1" edge="1" source="cos2" target="blob2">
        <mxGeometry relative="1" as="geometry"/>
      </mxCell>
      <mxCell id="x20" style="edgeStyle=orthogonalEdgeStyle;rounded=0;orthogonalLoop=1;jettySize=auto;html=1;" parent="1" edge="1" source="api2" target="aks">
        <mxGeometry relative="1" as="geometry"/>
      </mxCell>
      <mxCell id="x21" style="edgeStyle=orthogonalEdgeStyle;rounded=0;orthogonalLoop=1;jettySize=auto;html=1;" parent="1" edge="1" source="func2" target="aks">
        <mxGeometry relative="1" as="geometry"/>
      </mxCell>
      </root>
    </mxGraphModel>
  </diagram>
</mxfile>
